<svg width="28" height="38" viewBox="0 0 28 38" fill="none" xmlns="http://www.w3.org/2000/svg">
<path d="M23.8995 26.8702L14 38L4.1005 26.8702C-1.36683 20.7231 -1.36683 10.7571 4.1005 4.61018C9.56784 -1.53673 18.4321 -1.53673 23.8995 4.61018C29.3668 10.7571 29.3668 20.7231 23.8995 26.8702ZM14 22.7357C17.4364 22.7357 20.2222 19.6036 20.2222 15.7401C20.2222 11.8766 17.4364 8.74452 14 8.74452C10.5635 8.74452 7.77777 11.8766 7.77777 15.7401C7.77777 19.6036 10.5635 22.7357 14 22.7357ZM14 19.2379C12.2817 19.2379 10.8889 17.672 10.8889 15.7401C10.8889 13.8083 12.2817 12.2423 14 12.2423C15.7182 12.2423 17.1111 13.8083 17.1111 15.7401C17.1111 17.672 15.7182 19.2379 14 19.2379Z" fill="black"/>
</svg>
