<svg width="35" height="36" viewBox="0 0 35 36" fill="none" xmlns="http://www.w3.org/2000/svg">
<path d="M34.9797 27.4972C34.6753 30.0457 33.5189 32.3876 31.7268 34.0857C29.9347 35.7837 28.1903 35.9974 25.8024 36C11.8841 36 0 24.5404 0 9.5642C0.00242061 6.99483 0.874077 4.51428 2.45213 2.58595C4.03019 0.657622 4.78965 0.379127 7.15803 0.0514685C7.76074 -0.0270493 8.42677 -0.0564231 8.95298 0.269412C9.47918 0.595246 10.5082 0.634932 10.7479 1.23511L13.4403 8.96064C13.623 9.418 14.1756 10.3961 14.1352 10.892C14.0948 11.3879 13.4916 12.4072 13.2378 12.8234L11.8686 17.3708C13.1853 20.2513 15.3564 22.5779 18.0393 23.9819L22.429 20.8334C22.8169 20.5541 23.2635 20.3837 23.7282 20.3378C24.193 20.2918 24.661 20.3718 25.0897 20.5704L33.2998 24.3564C33.8575 24.6145 34.3225 25.0599 34.6253 25.6261C34.9282 26.1923 35.0525 26.8487 34.9797 27.4972ZM21.9726 3.47742C24.112 4.0964 26.0627 5.30943 27.6292 6.99501C29.1957 8.68059 30.323 10.7795 30.8983 13.0815C30.9949 13.4674 31.2299 13.7962 31.5516 13.9959C31.8733 14.1955 32.2555 14.2497 32.6143 14.1465C32.9731 14.0434 33.2792 13.7913 33.4654 13.4455C33.6517 13.0998 33.7028 12.6887 33.6077 12.3024C32.9045 9.48835 31.5264 6.92257 29.6114 4.86208C27.6965 2.80158 25.312 1.31872 22.6967 0.562044C22.3377 0.459685 21.9556 0.514748 21.6343 0.715149C21.313 0.91555 21.0787 1.24492 20.9828 1.63099C20.8869 2.01706 20.9373 2.42829 21.1229 2.77445C21.3084 3.12061 21.614 3.37343 21.9726 3.47742ZM20.5205 9.30873C21.709 9.65261 22.7926 10.3265 23.6628 11.2629C24.533 12.1992 25.1593 13.3652 25.4789 14.644C25.5756 15.0299 25.8105 15.3587 26.1322 15.5584C26.4539 15.758 26.8361 15.8122 27.1949 15.709C27.5537 15.6059 27.8598 15.3538 28.046 15.008C28.2323 14.6623 28.2835 14.2512 28.1883 13.8649C27.7408 12.074 26.8638 10.4412 25.6451 9.12986C24.4265 7.81856 22.9089 6.87487 21.2446 6.39335C20.8856 6.29099 20.5035 6.34606 20.1822 6.54646C19.8609 6.74686 19.6266 7.07623 19.5307 7.4623C19.4348 7.84837 19.4852 8.2596 19.6707 8.60576C19.8563 8.95192 20.1619 9.20473 20.5205 9.30873Z" fill="black"/>
</svg>
