<svg xmlns="http://www.w3.org/2000/svg" viewBox="0 0 100 100" x="0px" y="0px"><title>tooth extraction, extraction, removal, tooth, dental, dentist</title><g data-name="Tooth Extraction"><path d="M26.7105,47.6716a19.24,19.24,0,0,1-1.2066-5.1475,4.0927,4.0927,0,0,1,1.04-3.0986,4.3558,4.3558,0,0,1,3.0874-1.2217,3.8309,3.8309,0,0,1,2.0239.58,4.3415,4.3415,0,0,0,4.6919,0,3.8312,3.8312,0,0,1,2.0239-.58,4.3555,4.3555,0,0,1,3.0874,1.2217,4.0919,4.0919,0,0,1,1.04,3.0986v.0029a19.1853,19.1853,0,0,1-1.2051,5.14l-.3511,1.02a36.1324,36.1324,0,0,0-2.1494,8.3809c-.0385.4336-.1933.4492-.2441.4541a1.0149,1.0149,0,0,1-.9243-.8008,8.2748,8.2748,0,0,1-.11-1.0264c-.145-1.95-.4145-5.582-3.5127-5.582s-3.3682,3.6318-3.5132,5.582a8.3308,8.3308,0,0,1-.1093,1.0244,1.0126,1.0126,0,0,1-.9249.8028c-.0507-.0049-.2055-.02-.2441-.4561A36.1366,36.1366,0,0,0,27.06,48.6862ZM41.91,24.5792c.49.24.97.48,1.43.73l.76-.35a11.9819,11.9819,0,0,0,5.78-5.78l4.18-8.89a3.7138,3.7138,0,0,0-.03-3.19,3.671,3.671,0,0,0-2.49-1.98,3.7079,3.7079,0,0,0-4.31,2.33l-2.9,7.93a11.9377,11.9377,0,0,1-5.02,6.13l-.86.53a5.9714,5.9714,0,0,1,1.1,1.52C40.13,23.7792,40.95,24.1192,41.91,24.5792Zm-27.97-14.29a3.7138,3.7138,0,0,1,.03-3.19,3.671,3.671,0,0,1,2.49-1.98,3.7079,3.7079,0,0,1,4.31,2.33l2.9,7.93a11.9377,11.9377,0,0,0,5.02,6.13l2.64,1.61a4.2271,4.2271,0,0,1,5.34,0,4.2275,4.2275,0,0,1,1.37,2.02,26.62,26.62,0,0,1,3,1.24c3.88,1.86,10.08,5.83,9.3,11.91-.64,4.98-4.66,4.82-4.66,4.82s.64-6.11-3.06-9.8c-3.69-3.7-5.75-3.81-5.75-3.81a4.21,4.21,0,0,1-5.74,0,4.0911,4.0911,0,0,1-1.11-1.69h-.01l-3.05-1.43-3.06-1.42a11.9821,11.9821,0,0,1-5.78-5.78Zm18.8,16.09a1.26,1.26,0,1,0,1.26-1.26A1.2548,1.2548,0,0,0,32.74,26.3792Zm-3.59,3.91a6.0036,6.0036,0,0,1-.66-.98l-2.38-1.12-1.36-.63c-3.63,2.14-7.73,5.72-7.09,10.73.64,4.98,4.66,4.82,4.66,4.82s-.64-6.11,3.05-9.8A18.2751,18.2751,0,0,1,29.15,30.2892Zm24.1664,18.7H42.9527l-.1211.3516a34.0633,34.0633,0,0,0-2.0474,7.9043,2.3163,2.3163,0,0,1-2.0337,2.2666q-.1238.0117-.2475.0117a3.0451,3.0451,0,0,1-2.7959-2.23,7.5491,7.5491,0,0,1-.188-1.45c-.1709-2.3028-.4844-3.73-1.5181-3.73s-1.3476,1.4277-1.5185,3.73a7.5641,7.5641,0,0,1-.1875,1.4482,3.0185,3.0185,0,0,1-3.044,2.2207,2.3169,2.3169,0,0,1-2.0337-2.2685A34.0725,34.0725,0,0,0,25.17,49.3405l-.1211-.3516H14.6851a1,1,0,0,0-1,1v3.3292a9.6692,9.6692,0,0,0,9.6577,9.6582H44.6587a9.6692,9.6692,0,0,0,9.6577-9.6582V49.9889A1,1,0,0,0,53.3164,48.9889Z"/></g></svg>