<svg width="25" height="25" viewBox="0 0 25 25" fill="none" xmlns="http://www.w3.org/2000/svg">
<path d="M21.5 17.2102C21.3304 18.5297 20.6862 19.7423 19.6878 20.6215C18.6893 21.5007 17.7175 21.6113 16.3871 21.6126C8.63301 21.6126 2.01215 15.6793 2.01215 7.92514C2.01349 6.59481 2.49911 5.31048 3.37828 4.31206C4.25744 3.31364 4.68055 3.16944 6.00002 2.99979C6.3358 2.95914 6.70686 2.94393 7.00002 3.11264C7.29317 3.28134 7.86644 3.30189 8 3.61264L9.5 7.61264C9.60177 7.84944 9.90965 8.35588 9.88715 8.61264C9.86465 8.8694 9.52855 9.39715 9.38715 9.61264L8.62435 11.9671C9.35792 13.4585 10.5675 14.6632 12.0622 15.3901L14.5078 13.7599C14.7238 13.6153 14.9727 13.5271 15.2316 13.5033C15.4905 13.4795 15.7512 13.5209 15.9901 13.6237L20.5641 15.584C20.8748 15.7176 21.1339 15.9483 21.3026 16.2414C21.4713 16.5345 21.5405 16.8744 21.5 17.2102ZM14.2535 4.77363C15.4454 5.09411 16.5321 5.72218 17.4049 6.59491C18.2776 7.46764 18.9057 8.55438 19.2262 9.74627C19.28 9.94605 19.4109 10.1163 19.5901 10.2197C19.7694 10.3231 19.9823 10.3511 20.1822 10.2977C20.3821 10.2443 20.5526 10.1138 20.6564 9.93475C20.7601 9.75574 20.7886 9.54288 20.7356 9.34287C20.3439 7.88587 19.5761 6.5574 18.5092 5.49055C17.4424 4.4237 16.1139 3.65593 14.6569 3.26415C14.4569 3.21115 14.244 3.23966 14.065 3.34342C13.886 3.44718 13.7555 3.61772 13.7021 3.81761C13.6486 4.0175 13.6767 4.23042 13.7801 4.40965C13.8835 4.58888 14.0537 4.71978 14.2535 4.77363ZM13.4445 7.79287C14.1066 7.97092 14.7103 8.31982 15.1951 8.80464C15.68 9.28946 16.0289 9.89317 16.2069 10.5553C16.2608 10.7551 16.3917 10.9253 16.5709 11.0287C16.7501 11.1321 16.963 11.1601 17.1629 11.1067C17.3628 11.0533 17.5334 10.9228 17.6371 10.7437C17.7409 10.5647 17.7694 10.3519 17.7164 10.1519C17.4671 9.22464 16.9785 8.3792 16.2995 7.70025C15.6206 7.02131 14.7751 6.5327 13.8479 6.28339C13.6479 6.23039 13.435 6.2589 13.256 6.36266C13.077 6.46642 12.9465 6.63696 12.8931 6.83685C12.8396 7.03674 12.8677 7.24966 12.9711 7.42889C13.0745 7.60812 13.2447 7.73902 13.4445 7.79287Z" fill="black"/>
</svg>
