<svg width="76" height="76" viewBox="0 0 76 76" fill="none" xmlns="http://www.w3.org/2000/svg">
<path d="M38.0008 2.9294C44.3276 6.2268 49.13 12.0501 51.0656 19.0642C51.6536 21.1937 53.8564 22.4436 55.9856 21.8558C58.1152 21.2681 59.3652 19.0653 58.7772 16.9358C56.9384 10.2724 53.1224 4.42844 47.9992 0.0760002C48.66 0.0256402 49.3272 0 50 0C58.0284 0 64.7168 2.912 69.3228 8.43928C73.848 13.8695 76 21.3823 76 30C76 42.3884 73.9432 53.4608 70.4204 61.5904C67.06 69.3448 61.5896 76 54 76C49.5988 76 46.8516 73.3908 45.2212 70.5584C43.7724 68.0424 42.9076 64.8676 42.2116 62.3116C41.3836 59.2716 40.7492 57.0016 39.846 55.4332C39.1016 54.1408 38.5988 54 38 54C37.4012 54 36.8984 54.1408 36.154 55.4332C35.2508 57.0016 34.6164 59.2716 33.7884 62.3116C33.0924 64.8676 32.2276 68.0424 30.7788 70.5584C29.1482 73.3908 26.4011 76 22 76C14.4104 76 8.93996 69.3448 5.57976 61.5904C2.057 53.4608 0 42.3884 0 30C0 21.3823 2.15188 13.8695 6.67712 8.43928C11.2832 2.912 17.9716 0 26 0C26.0379 0 26.0758 8.03259e-05 26.1137 0.000240326C30.3948 0.0186403 34.44 1.074 38.0008 2.9294Z" fill="black"/>
</svg>
