<svg width="22" height="22" viewBox="0 0 22 22" fill="none" xmlns="http://www.w3.org/2000/svg">
<path d="M11.0011 0.166656C16.9841 0.166656 21.8344 5.0169 21.8344 11C21.8344 16.983 16.9841 21.8333 11.0011 21.8333C9.01436 21.8333 7.15255 21.2986 5.55176 20.3651L0.172253 21.8333L1.63688 16.4508C0.702848 14.8497 0.167725 12.9874 0.167725 11C0.167725 5.0169 5.01797 0.166656 11.0011 0.166656ZM7.09168 5.91735C6.9515 5.92719 6.81407 5.96143 6.68895 6.02544C6.59508 6.07347 6.50793 6.14288 6.37101 6.27217C6.24171 6.39425 6.16678 6.50087 6.08783 6.60367C5.68732 7.12512 5.47206 7.76521 5.47606 8.42272C5.47824 8.95422 5.6163 9.47076 5.83433 9.95306C6.27647 10.9311 7.00562 11.965 7.96876 12.9239C8.20012 13.1542 8.42679 13.387 8.6712 13.6022C9.86661 14.6547 11.2912 15.4137 12.8316 15.8189C12.8316 15.8189 13.4383 15.912 13.4471 15.9126C13.6481 15.9234 13.8487 15.9089 14.0499 15.8986C14.3655 15.8824 14.6736 15.797 14.9524 15.6485C15.1317 15.553 15.2165 15.5056 15.367 15.4107C15.367 15.4107 15.4132 15.3795 15.5022 15.3132C15.6485 15.2042 15.7388 15.1275 15.8605 15.0012C15.9502 14.908 16.0273 14.7979 16.0869 14.6739C16.1716 14.4971 16.2569 14.1596 16.2908 13.8794C16.3167 13.6653 16.3089 13.5483 16.3061 13.4758C16.3014 13.3593 16.2051 13.2393 16.0996 13.1884L15.4696 12.9052C15.4696 12.9052 14.5277 12.4953 13.9515 12.2325C13.8915 12.2051 13.8259 12.1924 13.7599 12.1884C13.6154 12.1795 13.4534 12.2172 13.3504 12.3258C13.345 12.3236 13.2733 12.3856 12.4895 13.3351C12.4462 13.3868 12.345 13.4991 12.1698 13.4886C12.1433 13.4868 12.117 13.483 12.0913 13.4763C12.0204 13.4575 11.9513 13.4328 11.8837 13.4042C11.7497 13.3474 11.7026 13.3258 11.6111 13.2864C10.9857 13.0131 10.4117 12.6476 9.90442 12.2003C9.76836 12.0805 9.64182 11.9515 9.51139 11.8251C9.05617 11.3838 8.68349 10.9145 8.40625 10.4516C8.39111 10.4264 8.36779 10.3899 8.34267 10.349C8.29731 10.2752 8.24728 10.1875 8.23159 10.1273C8.19132 9.9679 8.29815 9.83985 8.29815 9.83985C8.29815 9.83985 8.56184 9.55157 8.68435 9.39481C8.80222 9.24391 8.90396 9.09636 8.96875 8.99116C9.09636 8.78601 9.13677 8.57399 9.06971 8.41042C8.76577 7.66944 8.45219 6.93246 8.12901 6.19967C8.06523 6.05506 7.8755 5.94999 7.70297 5.93007C7.64453 5.92332 7.58614 5.91653 7.52747 5.91268C7.38224 5.90559 7.23671 5.90715 7.09168 5.91735Z" fill="black"/>
</svg>
