<svg width="26" height="26" viewBox="0 0 26 26" fill="none" xmlns="http://www.w3.org/2000/svg">
<path d="M13.0011 2.16666C18.9841 2.16666 23.8344 7.0169 23.8344 13C23.8344 18.983 18.9841 23.8333 13.0011 23.8333C11.0144 23.8333 9.15255 23.2986 7.55176 22.3651L2.17225 23.8333L3.63688 18.4508C2.70285 16.8497 2.16772 14.9874 2.16772 13C2.16772 7.0169 7.01797 2.16666 13.0011 2.16666ZM9.09168 7.91735C8.9515 7.92719 8.81407 7.96143 8.68895 8.02544C8.59508 8.07347 8.50793 8.14288 8.37101 8.27217C8.24171 8.39425 8.16678 8.50087 8.08783 8.60367C7.68732 9.12512 7.47206 9.76521 7.47606 10.4227C7.47824 10.9542 7.6163 11.4708 7.83433 11.9531C8.27647 12.9311 9.00562 13.965 9.96876 14.9239C10.2001 15.1542 10.4268 15.387 10.6712 15.6022C11.8666 16.6547 13.2912 17.4137 14.8316 17.8189C14.8316 17.8189 15.4383 17.912 15.4471 17.9126C15.6481 17.9234 15.8487 17.9089 16.0499 17.8986C16.3655 17.8824 16.6736 17.797 16.9524 17.6485C17.1317 17.553 17.2165 17.5056 17.367 17.4107C17.367 17.4107 17.4132 17.3795 17.5022 17.3132C17.6485 17.2042 17.7388 17.1275 17.8605 17.0012C17.9502 16.908 18.0273 16.7979 18.0869 16.6739C18.1716 16.4971 18.2569 16.1596 18.2908 15.8794C18.3167 15.6653 18.3089 15.5483 18.3061 15.4758C18.3014 15.3593 18.2051 15.2393 18.0996 15.1884L17.4696 14.9052C17.4696 14.9052 16.5277 14.4953 15.9515 14.2325C15.8915 14.2051 15.8259 14.1924 15.7599 14.1884C15.6154 14.1795 15.4534 14.2172 15.3504 14.3258C15.345 14.3236 15.2733 14.3856 14.4895 15.3351C14.4462 15.3868 14.345 15.4991 14.1698 15.4886C14.1433 15.4868 14.117 15.483 14.0913 15.4763C14.0204 15.4575 13.9513 15.4328 13.8837 15.4042C13.7497 15.3474 13.7026 15.3258 13.6111 15.2864C12.9857 15.0131 12.4117 14.6476 11.9044 14.2003C11.7684 14.0805 11.6418 13.9515 11.5114 13.8251C11.0562 13.3838 10.6835 12.9145 10.4062 12.4516C10.3911 12.4264 10.3678 12.3899 10.3427 12.349C10.2973 12.2752 10.2473 12.1875 10.2316 12.1273C10.1913 11.9679 10.2982 11.8398 10.2982 11.8398C10.2982 11.8398 10.5618 11.5516 10.6844 11.3948C10.8022 11.2439 10.904 11.0964 10.9687 10.9912C11.0964 10.786 11.1368 10.574 11.0697 10.4104C10.7658 9.66944 10.4522 8.93246 10.129 8.19967C10.0652 8.05506 9.8755 7.94999 9.70297 7.93007C9.64453 7.92332 9.58614 7.91653 9.52747 7.91268C9.38224 7.90559 9.23671 7.90715 9.09168 7.91735Z" fill="white"/>
</svg>
