<svg width="25" height="25" viewBox="0 0 25 25" fill="none" xmlns="http://www.w3.org/2000/svg">
<path d="M21.5 17.2104C21.3304 18.5299 20.6862 19.7425 19.6878 20.6217C18.6893 21.5009 17.7175 21.6115 16.3871 21.6129C8.63301 21.6129 2.01215 15.6795 2.01215 7.92535C2.01349 6.59503 2.49911 5.31069 3.37828 4.31227C4.25744 3.31385 4.68055 3.16966 6.00002 3.00001C6.3358 2.95935 6.70686 2.94414 7.00002 3.11285C7.29317 3.28156 7.86644 3.3021 8 3.61285L9.5 7.61285C9.60177 7.84965 9.90965 8.35609 9.88715 8.61285C9.86465 8.86961 9.52855 9.39736 9.38715 9.61285L8.62435 11.9673C9.35792 13.4588 10.5675 14.6634 12.0622 15.3903L14.5078 13.7601C14.7238 13.6155 14.9727 13.5273 15.2316 13.5035C15.4905 13.4797 15.7512 13.5211 15.9901 13.6239L20.5641 15.5842C20.8748 15.7178 21.1339 15.9485 21.3026 16.2416C21.4713 16.5348 21.5405 16.8746 21.5 17.2104ZM14.2535 4.77384C15.4454 5.09432 16.5321 5.72239 17.4049 6.59512C18.2776 7.46785 18.9057 8.5546 19.2262 9.74649C19.28 9.94627 19.4109 10.1165 19.5901 10.2199C19.7694 10.3233 19.9823 10.3513 20.1822 10.2979C20.3821 10.2445 20.5526 10.114 20.6564 9.93496C20.7601 9.75595 20.7886 9.54309 20.7356 9.34308C20.3439 7.88608 19.5761 6.55762 18.5092 5.49076C17.4424 4.42391 16.1139 3.65614 14.6569 3.26436C14.4569 3.21137 14.244 3.23988 14.065 3.34364C13.886 3.4474 13.7555 3.61793 13.7021 3.81783C13.6486 4.01772 13.6767 4.23064 13.7801 4.40987C13.8835 4.5891 14.0537 4.72 14.2535 4.77384ZM13.4445 7.79308C14.1066 7.97113 14.7103 8.32004 15.1951 8.80486C15.68 9.28967 16.0289 9.89338 16.2069 10.5555C16.2608 10.7553 16.3917 10.9255 16.5709 11.0289C16.7501 11.1323 16.963 11.1604 17.1629 11.1069C17.3628 11.0535 17.5334 10.923 17.6371 10.744C17.7409 10.565 17.7694 10.3521 17.7164 10.1521C17.4671 9.22485 16.9785 8.37941 16.2995 7.70047C15.6206 7.02152 14.7751 6.53292 13.8479 6.2836C13.6479 6.23061 13.435 6.25912 13.256 6.36288C13.077 6.46664 12.9465 6.63717 12.8931 6.83706C12.8396 7.03696 12.8677 7.24988 12.9711 7.42911C13.0745 7.60833 13.2447 7.73924 13.4445 7.79308Z" fill="white"/>
</svg>
